<svg xmlns="http://www.w3.org/2000/svg" viewBox="0 0 150.04 150.04"><defs><style>.cls-1{fill:#061146;stroke:#000;stroke-linecap:round;stroke-linejoin:round;stroke-width:0.04px;}</style></defs><g id="Layer_2" data-name="Layer 2"><g id="svg1105"><g id="layer1"><path id="path1909-7" class="cls-1" d="M75,0A75,75,0,0,0,3.52,52.44h0C15,48.79,27.1,49.22,38,52.19s20.73,7.78,29.83,13S85.49,75.82,94.18,80.13s17.57,7.65,26.45,8.43c9,1,18.52-.75,28-3.39l.7-.21A74.73,74.73,0,0,0,75,0ZM20.86,64.88A37.12,37.12,0,0,0,8.21,66.73a32.83,32.83,0,0,0-8,3.92C.09,72.1,0,73.56,0,75q0,3.49.36,7c1-.42,2.08-.82,3.14-1.17A61.24,61.24,0,0,1,38,80.57c10.89,2.91,20.73,7.78,29.82,13s17.64,10.63,26.33,14.94,17.57,7.65,26.45,8.43a61.56,61.56,0,0,0,17.1-.87,74.83,74.83,0,0,0,7.39-14.48,85,85,0,0,1-25.94,1.94c-11.47-1.19-22.11-5.07-31.72-9.94s-18.37-10.39-27-15.32S43.11,69,34.21,66.74A58.5,58.5,0,0,0,20.86,64.88Zm0,28.38A36.87,36.87,0,0,0,8.21,95.11a32.57,32.57,0,0,0-4.85,2,74.93,74.93,0,0,0,4.35,10.91A62.44,62.44,0,0,1,38,109c10.89,2.91,20.73,7.78,29.82,13s17.64,10.63,26.33,14.94a107.42,107.42,0,0,0,13.39,5.6,74.94,74.94,0,0,0,15.92-10.33c-1.43,0-2.86-.12-4.31-.25-11.47-1.19-22.11-5.07-31.72-9.94s-18.37-10.39-27-15.32S43.11,97.39,34.21,95.12A58.5,58.5,0,0,0,20.86,93.26Zm0,28.38a40.79,40.79,0,0,0-4.44.18,74.81,74.81,0,0,0,69,27.46c-8.81-4.57-17-9.68-25-14.25-8.68-4.88-17.32-9.26-26.22-11.53A58.5,58.5,0,0,0,20.86,121.64Z"/></g></g></g></svg>